<svg xmlns="http://www.w3.org/2000/svg" viewBox="0 0 668.18 148.13"><defs><style>.cls-1{fill:#f59e0b;}.cls-2{fill:#4f46e5;}.cls-3{fill:#19194f;}</style></defs><g id="Camada_2" data-name="Camada 2"><g id="Camada_1-2" data-name="Camada 1"><path class="cls-1" d="M134.5.45l-1.36,7a.52.52,0,0,1-.32.4l-6.75,3a.55.55,0,0,0,0,1l6.49,3.34a.57.57,0,0,1,.3.46l.43,7.57a.56.56,0,0,0,1,.35c1.67-1.82,5.15-5.54,5.55-5.47l7.1,1.4a.56.56,0,0,0,.59-.83l-3.79-6.32a.54.54,0,0,1,0-.62l4.65-6.11a.56.56,0,0,0-.51-.89l-7.47.91a.54.54,0,0,1-.49-.2L135.47.2A.55.55,0,0,0,134.5.45Z"/><path class="cls-2" d="M94.82,9.59,0,57.94,23.7,70.09V97.4a9,9,0,0,0-2.56,16.4l-2.82,15.44H33.59l-2.65-15.55A9,9,0,0,0,28.2,97.4v-25L56.25,86.77a15,15,0,0,1,8,10.42,60.65,60.65,0,0,1,1,11.61,111.88,111.88,0,0,1-7.71,39.33C107.12,59.45,47.76,43,47.76,43,77.2,41.59,97.59,66.53,97.59,66.53c20.88-7.29,35.82-29.74,35.82-29.74-7,54.68-60.47,100-60.47,100,32.94-16.36,53.88-45.89,53.88-45.89l64.47-32.82ZM99.7,54.88a9.77,9.77,0,1,1,9.77-9.76A9.76,9.76,0,0,1,99.7,54.88Z"/><path class="cls-3" d="M217.58,39.66a26.62,26.62,0,0,1,10.18-10.18,28.91,28.91,0,0,1,14.47-3.65,28.46,28.46,0,0,1,16.44,4.81A25.16,25.16,0,0,1,268.53,44H255.62a13.36,13.36,0,0,0-5.41-6,15.86,15.86,0,0,0-8.06-2,16.53,16.53,0,0,0-8.7,2.29,15.57,15.57,0,0,0-5.93,6.45,21.23,21.23,0,0,0-2.12,9.78,21.26,21.26,0,0,0,2.12,9.74,15.58,15.58,0,0,0,5.93,6.5,16.61,16.61,0,0,0,8.7,2.28,15.68,15.68,0,0,0,8.06-2,13.65,13.65,0,0,0,5.41-6.06h12.91a25,25,0,0,1-9.82,13.35,30.69,30.69,0,0,1-30.95,1.12A26.72,26.72,0,0,1,217.58,69.2a29,29,0,0,1-3.73-14.75A29.28,29.28,0,0,1,217.58,39.66Z"/><path class="cls-3" d="M286.33,80.39a20.49,20.49,0,0,1-8.06-8.06,24.14,24.14,0,0,1-2.93-12,23.55,23.55,0,0,1,3-12,20.82,20.82,0,0,1,8.22-8.06,25.21,25.21,0,0,1,23.25,0A20.86,20.86,0,0,1,318,48.28a23.55,23.55,0,0,1,3,12,23.12,23.12,0,0,1-3.09,12,21.36,21.36,0,0,1-8.33,8.06,24.25,24.25,0,0,1-11.75,2.84A23.33,23.33,0,0,1,286.33,80.39ZM303.6,72a10.78,10.78,0,0,0,4.29-4.45,15,15,0,0,0,1.61-7.22q0-6.33-3.33-9.74a10.94,10.94,0,0,0-8.14-3.4,10.69,10.69,0,0,0-8.06,3.4q-3.24,3.42-3.24,9.74c0,4.23,1,7.47,3.16,9.75a10.43,10.43,0,0,0,8,3.4A11.65,11.65,0,0,0,303.6,72Z"/><path class="cls-3" d="M397.64,42.47q5,5,5,14V82.51H391.43V58q0-5.2-2.65-8a9.52,9.52,0,0,0-7.21-2.76A9.66,9.66,0,0,0,374.31,50q-2.69,2.78-2.68,8V82.51H360.4V58q0-5.2-2.64-8a9.54,9.54,0,0,0-7.22-2.76A9.75,9.75,0,0,0,343.21,50q-2.68,2.78-2.69,8V82.51H329.3V38.1h11.22v5.37a14.94,14.94,0,0,1,5.57-4.41,17.37,17.37,0,0,1,7.5-1.6,19.3,19.3,0,0,1,9.3,2.2A15.47,15.47,0,0,1,369.22,46a16.16,16.16,0,0,1,6.29-6.17,18,18,0,0,1,8.94-2.32Q392.64,37.46,397.64,42.47Z"/><path class="cls-3" d="M447.87,26.55v9.06H424.54V50h17.88v8.9H424.54V82.51H413.32v-56Z"/><path class="cls-3" d="M497.74,38.1V82.51H486.43V76.9a14.83,14.83,0,0,1-5.65,4.53,17.65,17.65,0,0,1-7.58,1.64,18.85,18.85,0,0,1-9.22-2.2,15.54,15.54,0,0,1-6.29-6.5,21.45,21.45,0,0,1-2.28-10.22V38.1h11.22V62.55q0,5.3,2.65,8.14a9.37,9.37,0,0,0,7.21,2.84,9.51,9.51,0,0,0,7.3-2.84q2.64-2.85,2.64-8.14V38.1Z"/><path class="cls-3" d="M521.87,47.32V68.8A4.26,4.26,0,0,0,523,72.05a5.31,5.31,0,0,0,3.65,1h5.21v9.46h-7.06q-14.19,0-14.19-13.79V47.32h-5.29V38.1h5.29v-11h11.31v11h9.94v9.22Z"/><path class="cls-3" d="M581.83,38.1V82.51h-11.3V76.9a14.91,14.91,0,0,1-5.65,4.53,17.65,17.65,0,0,1-7.58,1.64,18.82,18.82,0,0,1-9.22-2.2,15.54,15.54,0,0,1-6.29-6.5,21.45,21.45,0,0,1-2.29-10.22V38.1h11.23V62.55q0,5.3,2.64,8.14a10.69,10.69,0,0,0,14.51,0q2.65-2.85,2.65-8.14V38.1Z"/><path class="cls-3" d="M609.77,39.46a15.71,15.71,0,0,1,8-2V49.24h-3q-5.28,0-8,2.49c-1.79,1.65-2.69,4.54-2.69,8.65V82.51H592.9V38.1h11.22V45A15.83,15.83,0,0,1,609.77,39.46Z"/><path class="cls-3" d="M633.46,80.39a20.46,20.46,0,0,1-8.05-8.06,24.14,24.14,0,0,1-2.93-12,23.55,23.55,0,0,1,3-12,20.86,20.86,0,0,1,8.21-8.06,25.21,25.21,0,0,1,23.25,0,20.82,20.82,0,0,1,8.22,8.06,23.55,23.55,0,0,1,3,12,23.12,23.12,0,0,1-3.09,12,21.38,21.38,0,0,1-8.34,8.06A24.19,24.19,0,0,1,645,83.23,23.37,23.37,0,0,1,633.46,80.39ZM650.74,72A10.78,10.78,0,0,0,655,67.52a15,15,0,0,0,1.6-7.22q0-6.33-3.32-9.74a10.94,10.94,0,0,0-8.14-3.4,10.69,10.69,0,0,0-8.06,3.4q-3.24,3.42-3.25,9.74c0,4.23,1.06,7.47,3.17,9.75a10.43,10.43,0,0,0,8,3.4A11.65,11.65,0,0,0,650.74,72Z"/></g></g></svg>