<svg width="192" height="149" viewBox="0 0 192 149" fill="none" xmlns="http://www.w3.org/2000/svg">
<path d="M134.5 0.460045L133.14 7.41006C133.124 7.49918 133.086 7.58303 133.03 7.65444C132.975 7.72585 132.903 7.78267 132.82 7.82003L126.08 10.82C125.987 10.8667 125.91 10.9382 125.855 11.0265C125.801 11.1147 125.772 11.2164 125.772 11.32C125.772 11.4237 125.801 11.5253 125.855 11.6136C125.91 11.7019 125.987 11.7733 126.08 11.82L132.57 15.15C132.657 15.1945 132.731 15.2616 132.784 15.3442C132.837 15.4268 132.867 15.522 132.87 15.62L133.31 23.18C133.302 23.2999 133.334 23.4189 133.4 23.5191C133.467 23.6192 133.564 23.6949 133.677 23.7346C133.791 23.7743 133.914 23.7757 134.028 23.7388C134.142 23.7019 134.241 23.6286 134.31 23.5301C135.99 21.7101 139.46 18 139.86 18.06L146.97 19.46C147.076 19.4824 147.185 19.4732 147.286 19.4335C147.386 19.3938 147.473 19.3255 147.535 19.237C147.596 19.1485 147.631 19.0437 147.634 18.9358C147.636 18.8279 147.607 18.7215 147.55 18.63L143.77 12.32C143.707 12.2271 143.673 12.1174 143.673 12.005C143.673 11.8927 143.707 11.7829 143.77 11.69L148.43 5.59005C148.498 5.50273 148.539 5.39716 148.547 5.28677C148.555 5.17637 148.53 5.06606 148.476 4.96975C148.421 4.87344 148.339 4.79548 148.24 4.74569C148.141 4.6959 148.03 4.67654 147.92 4.69003L140.44 5.6C140.349 5.60997 140.257 5.59791 140.172 5.56484C140.087 5.53177 140.01 5.47872 139.95 5.41006L135.51 0.170006C135.442 0.0776743 135.348 0.00834928 135.239 -0.0286633C135.131 -0.0656758 135.014 -0.0685676 134.904 -0.036964C134.794 -0.00536052 134.696 0.0592285 134.624 0.148095C134.552 0.236961 134.508 0.345842 134.5 0.460045Z" fill="#F59E0B"/>
<path d="M94.82 9.63L-3.05176e-05 57.98L23.6999 70.13V97.44C21.9786 97.8655 20.4213 98.79 19.2236 100.097C18.0259 101.405 17.2412 103.037 16.9677 104.789C16.6943 106.541 16.9442 108.334 17.6865 109.945C18.4288 111.555 19.6304 112.91 21.1401 113.84L18.32 129.28H33.5901L30.9399 113.73C32.4132 112.775 33.5751 111.41 34.2822 109.803C34.9893 108.196 35.2109 106.417 34.9196 104.685C34.6284 102.954 33.837 101.345 32.643 100.058C31.4491 98.7705 29.9046 97.8606 28.1999 97.44V72.44L56.25 86.81C58.2773 87.832 60.0462 89.3008 61.4233 91.1058C62.8004 92.9107 63.7497 95.0047 64.1999 97.23C64.9051 101.059 65.24 104.947 65.1999 108.84C65.0182 122.307 62.4063 135.631 57.49 148.17C107.15 59.49 47.79 43.04 47.79 43.04C77.23 41.63 97.6201 66.57 97.6201 66.57C118.5 59.28 133.44 36.83 133.44 36.83C126.44 91.51 72.9699 136.83 72.9699 136.83C105.91 120.47 126.85 90.94 126.85 90.94L191.32 58.12L94.82 9.63ZM99.6999 54.92C97.7672 54.92 95.8778 54.3468 94.271 53.2728C92.6641 52.1988 91.412 50.6724 90.6728 48.8865C89.9336 47.1007 89.7406 45.1358 90.1184 43.2403C90.4962 41.3448 91.4278 39.604 92.7951 38.238C94.1625 36.8721 95.9042 35.9424 97.8 35.5665C99.6959 35.1907 101.661 35.3856 103.446 36.1266C105.231 36.8676 106.756 38.1214 107.828 39.7294C108.901 41.3374 109.472 43.2273 109.47 45.16C109.459 47.7433 108.425 50.2171 106.594 52.0391C104.762 53.8611 102.283 54.8827 99.6999 54.88V54.92Z" fill="#4F46E5"/>
</svg>
